<svg width="21" height="21" viewBox="0 0 21 21" fill="none" xmlns="http://www.w3.org/2000/svg">
<g clip-path="url(#clip0)">
<path d="M0.684654 11.185H13.9239C14.3019 11.185 14.6087 10.8782 14.6087 10.5002C14.6087 10.1222 14.3019 9.81543 13.9239 9.81543H0.684654C0.306653 9.81543 -0.0001297 10.1222 -0.0001297 10.5002C-0.0001297 10.8782 0.306653 11.185 0.684654 11.185Z" fill="#6AAE36"/>
<path d="M10.2716 14.8371C10.447 14.8371 10.6222 14.7705 10.7556 14.6363L14.4077 10.9842C14.6752 10.7165 14.6752 10.2828 14.4077 10.0153L10.7556 6.36322C10.4881 6.09572 10.0544 6.09572 9.78678 6.36322C9.51929 6.63071 9.51929 7.06439 9.78678 7.33188L12.9551 10.5002L9.78678 13.6685C9.51929 13.936 9.51929 14.3696 9.78678 14.6371C9.92103 14.7705 10.0964 14.8371 10.2716 14.8371Z" fill="#6AAE36"/>
<path d="M10.9565 20.5436C16.4941 20.5436 21 16.0377 21 10.5001C21 4.96247 16.4941 0.456543 10.9565 0.456543C6.80129 0.456543 3.13262 2.95643 1.60875 6.82606C1.46999 7.17748 1.64352 7.5747 1.99494 7.7143C2.34653 7.85139 2.74376 7.68053 2.88335 7.32727C4.19909 3.98545 7.36821 1.82611 10.9565 1.82611C15.7391 1.82611 19.6304 5.71763 19.6304 10.5001C19.6304 15.2825 15.7391 19.174 10.9565 19.174C7.36821 19.174 4.19909 17.0147 2.88335 13.6739C2.74459 13.3205 2.34736 13.1498 1.99494 13.2867C1.64352 13.4254 1.46999 13.8235 1.60875 14.1751C3.13262 18.0437 6.80129 20.5436 10.9565 20.5436Z" fill="#6AAE36"/>
</g>
<defs>
<clipPath id="clip0">
<rect width="21" height="21" fill="white" transform="matrix(-1 0 0 1 21 0)"/>
</clipPath>
</defs>
</svg>
