<svg width="21" height="21" viewBox="0 0 21 21" fill="none" xmlns="http://www.w3.org/2000/svg">
<g clip-path="url(#clip0)">
<path d="M20.3154 11.1847H7.07614C6.69814 11.1847 6.39136 10.878 6.39136 10.5C6.39136 10.122 6.69814 9.81519 7.07614 9.81519H20.3154C20.6934 9.81519 21.0002 10.122 21.0002 10.5C21.0002 10.878 20.6934 11.1847 20.3154 11.1847Z" fill="#333333"/>
<path d="M10.7283 14.8368C10.553 14.8368 10.3777 14.7703 10.2443 14.636L6.59222 10.9839C6.32473 10.7163 6.32473 10.2826 6.59222 10.0151L10.2443 6.36297C10.5118 6.09548 10.9455 6.09548 11.2132 6.36297C11.4807 6.63047 11.4807 7.06414 11.2132 7.33163L8.04487 10.4999L11.2132 13.6682C11.4807 13.9357 11.4807 14.3694 11.2132 14.6369C11.0789 14.7703 10.9035 14.8368 10.7283 14.8368Z" fill="#333333"/>
<path d="M10.0435 20.5436C4.50592 20.5436 0 16.0377 0 10.5001C0 4.96247 4.50592 0.456543 10.0435 0.456543C14.1987 0.456543 17.8674 2.95643 19.3913 6.82606C19.53 7.17748 19.3565 7.5747 19.0051 7.7143C18.6535 7.85139 18.2562 7.68053 18.1166 7.32727C16.8009 3.98545 13.6318 1.82611 10.0435 1.82611C5.26092 1.82611 1.36957 5.71763 1.36957 10.5001C1.36957 15.2825 5.26092 19.174 10.0435 19.174C13.6318 19.174 16.8009 17.0147 18.1166 13.6739C18.2554 13.3205 18.6526 13.1498 19.0051 13.2867C19.3565 13.4254 19.53 13.8235 19.3913 14.1751C17.8674 18.0437 14.1987 20.5436 10.0435 20.5436Z" fill="#333333"/>
</g>
<defs>
<clipPath id="clip0">
<rect width="21" height="21" fill="white"/>
</clipPath>
</defs>
</svg>
