<svg width="40" height="40" viewBox="0 0 40 40" fill="none" xmlns="http://www.w3.org/2000/svg">
<g clip-path="url(#clip0)">
<path d="M30.8335 15.833H7.49957C6.12118 15.833 4.99951 16.9547 4.99951 18.3331V19.9997C4.99951 25.9465 8.28459 31.34 13.5714 34.0751C13.9797 34.2851 14.483 34.1267 14.6947 33.7167C14.9047 33.3083 14.7464 32.8051 14.3364 32.5933C9.60626 30.1466 6.66619 25.3215 6.66619 19.9997V18.333C6.66619 17.873 7.03956 17.4996 7.49957 17.4996H30.8335C31.2935 17.4996 31.6669 17.873 31.6669 18.333V19.9997C31.6669 25.3214 28.7268 30.1466 23.995 32.5916C23.585 32.8033 23.4267 33.3066 23.6367 33.715C23.785 34.0016 24.0767 34.1667 24.3783 34.1667C24.5083 34.1667 24.6383 34.1367 24.76 34.0733C30.0485 31.3399 33.3335 25.9481 33.3335 19.9996V18.3329C33.3335 16.9547 32.2118 15.833 30.8335 15.833Z" fill="#6AAE36"/>
<path d="M38.2716 33.0131C38.1416 32.7014 37.8382 32.498 37.5016 32.498H0.8341C0.497452 32.498 0.194086 32.7014 0.0640825 33.0131C-0.0659205 33.3247 0.00572181 33.6831 0.244087 33.9214L2.11249 35.7915C3.21587 36.8932 4.67919 37.4999 6.23759 37.4999H32.0948C33.6532 37.4999 35.1183 36.8932 36.2233 35.7915L38.0917 33.9214C38.33 33.6831 38.4016 33.3247 38.2716 33.0131ZM35.0433 34.6131C34.2566 35.3998 33.2082 35.8331 32.0965 35.8331H6.23759C5.12592 35.8331 4.07754 35.3998 3.29088 34.6131L2.84423 34.1664H35.4899L35.0433 34.6131Z" fill="#6AAE36"/>
<path d="M38.3887 19.7681C36.1437 18.3247 32.5569 19.8914 32.1552 20.0731C31.7368 20.2647 31.5502 20.7581 31.7418 21.1781C31.9335 21.5981 32.4252 21.7831 32.8469 21.5915C33.6502 21.2265 36.2269 20.3614 37.487 21.1731C38.0554 21.5381 38.3336 22.2465 38.3336 23.3331C38.3336 26.6699 31.6035 28.6866 29.0051 29.1833L28.415 29.2999C27.9634 29.3883 27.67 29.8266 27.7584 30.2783C27.8367 30.675 28.185 30.95 28.575 30.95C28.6284 30.95 28.6817 30.945 28.7367 30.9333L29.3217 30.8183C29.7584 30.735 40.0003 28.7266 40.0003 23.3331C40.0004 21.6565 39.4571 20.4581 38.3887 19.7681Z" fill="#6AAE36"/>
<path d="M25.6548 8.85244C27.0098 7.15905 27.0098 4.50734 25.6548 2.81394C25.3664 2.45394 24.8448 2.39393 24.4831 2.68394C24.1231 2.97231 24.0648 3.4956 24.3531 3.85561C25.2115 4.92728 25.2115 6.73904 24.3515 7.81406C22.9948 9.50746 22.9948 12.1592 24.3515 13.8526C24.5165 14.0592 24.7581 14.1659 25.0031 14.1659C25.1848 14.1659 25.3698 14.1059 25.5232 13.9826C25.8832 13.6942 25.9415 13.1692 25.6532 12.8109C24.7931 11.7392 24.7931 9.92747 25.6548 8.85244Z" fill="#6AAE36"/>
<path d="M20.6477 8.85273C22.0044 7.15933 22.0044 4.50763 20.6477 2.81423C20.3611 2.45422 19.836 2.39586 19.476 2.68423C19.116 2.97259 19.0577 3.49761 19.346 3.8559C20.2061 4.92756 20.2061 6.73932 19.3444 7.81435C17.9894 9.50775 17.9894 12.1594 19.3444 13.8528C19.5094 14.0595 19.751 14.1662 19.9961 14.1662C20.1777 14.1662 20.3611 14.1062 20.5161 13.9829C20.8761 13.6945 20.9344 13.1712 20.6461 12.8112C19.7877 11.7394 19.7877 9.92776 20.6477 8.85273Z" fill="#6AAE36"/>
<path d="M15.6548 8.8544C17.0098 7.161 17.0098 4.5093 15.6548 2.8159C15.3682 2.45589 14.8448 2.39589 14.4831 2.68589C14.1248 2.97254 14.0665 3.49755 14.3531 3.85592C15.2115 4.92759 15.2115 6.73935 14.3515 7.81437C12.9948 9.50777 12.9948 12.1595 14.3515 13.8529C14.5165 14.0595 14.7581 14.1662 15.0031 14.1662C15.1848 14.1662 15.3698 14.1062 15.5232 13.9846C15.8832 13.6962 15.9415 13.1712 15.6532 12.8129C14.7931 11.7395 14.7931 9.92942 15.6548 8.8544Z" fill="#6AAE36"/>
</g>
<defs>
<clipPath id="clip0">
<rect width="40" height="40" fill="white"/>
</clipPath>
</defs>
</svg>
