<svg width="26" height="26" viewBox="0 0 26 26" fill="none" xmlns="http://www.w3.org/2000/svg">
<path d="M13 0C5.83177 0 0 5.83177 0 13C0 20.1682 5.83177 26 13 26C20.1682 26 26 20.1682 26 13C26 5.83177 20.1682 0 13 0ZM13 24.4766C6.67179 24.4766 1.52344 19.3282 1.52344 13C1.52344 6.67179 6.67179 1.52344 13 1.52344C19.3282 1.52344 24.4766 6.67179 24.4766 13C24.4766 19.3282 19.3282 24.4766 13 24.4766Z" fill="#5C5D67"/>
<path d="M12.9999 4.89551C11.6802 4.89551 10.6064 5.96923 10.6064 7.28898C10.6064 8.60874 11.6802 9.68251 12.9999 9.68251C14.3197 9.68251 15.3934 8.60874 15.3934 7.28898C15.3934 5.96923 14.3197 4.89551 12.9999 4.89551ZM12.9999 8.15907C12.5202 8.15907 12.1299 7.76871 12.1299 7.28898C12.1299 6.80925 12.5202 6.41895 12.9999 6.41895C13.4796 6.41895 13.87 6.80925 13.87 7.28898C13.87 7.76871 13.4796 8.15907 12.9999 8.15907Z" fill="#6AAE36"/>
<path d="M12.9999 11.4224C11.6802 11.4224 10.6064 12.4961 10.6064 13.8158V18.7111C10.6064 20.0608 11.7057 21.1046 12.9999 21.1046C14.3197 21.1046 15.3934 20.0309 15.3934 18.7111V13.8158C15.3934 12.4662 14.2941 11.4224 12.9999 11.4224ZM13.87 18.7111C13.87 19.1909 13.4796 19.5812 12.9999 19.5812C12.5251 19.5812 12.1299 19.1984 12.1299 18.7111V13.8158C12.1299 13.3361 12.5202 12.9458 12.9999 12.9458C13.4748 12.9458 13.87 13.3285 13.87 13.8158V18.7111Z" fill="#6AAE36"/>
</svg>
