<svg width="138" height="20" viewBox="0 0 138 20" fill="none" xmlns="http://www.w3.org/2000/svg">
<path d="M22.3387 4.81741C22.3387 3.75545 23.0439 3.1582 24.0268 3.1582H28.1296C30.3515 3.1582 32.1477 4.70554 32.1477 7.05149C32.1477 8.59882 31.5273 9.63841 30.1603 10.3028V10.3458C31.9764 10.6109 33.4099 12.1823 33.4099 14.1066C33.4099 17.2253 31.4009 18.9069 28.4506 18.9069H24.0484C23.0655 18.9069 22.3387 18.2649 22.3387 17.2253V4.81741ZM25.5452 9.39573H27.2116C28.2593 9.39573 28.9429 8.75373 28.9429 7.64874C28.9429 6.60915 28.1529 6.07731 27.2116 6.07731H25.5452V9.39573ZM25.5452 15.9878H28.0664C29.2206 15.9878 30.0754 15.3011 30.0754 14.0635C30.0754 13.024 29.3054 12.3166 27.8103 12.3166H25.5452V15.9878Z" fill="#1C1C1C"/>
<path d="M34.6069 5.08418C34.6069 3.97747 35.1424 3.15991 36.275 3.15991H41.5752C42.6014 3.15991 43.0936 3.91206 43.0936 4.68659C43.0936 5.43874 42.5814 6.21327 41.5752 6.21327H37.8133V9.4439H41.3191C42.3669 9.4439 42.8791 10.1961 42.8791 10.9689C42.8791 11.721 42.3436 12.4955 41.3191 12.4955H37.8133V15.857H41.7681C42.7943 15.857 43.2849 16.6091 43.2849 17.3837C43.2849 18.1358 42.771 18.9103 41.7681 18.9103H36.2533C35.312 18.9103 34.6069 18.2477 34.6069 17.2511V5.08418Z" fill="#1C1C1C"/>
<path d="M53.5016 5.10502C53.5016 5.96732 52.9461 6.74185 52.0697 6.74185C51.1932 6.74185 50.5097 6.0792 49.2275 6.0792C48.3078 6.0792 47.4746 6.58866 47.4746 7.51637C47.4746 9.7952 54.6126 8.33565 54.6126 14.0413C54.6126 17.2048 52.0896 19.1721 49.141 19.1721C47.4945 19.1721 43.9471 18.7746 43.9471 16.6937C43.9471 15.8314 44.5026 15.124 45.3791 15.124C46.3836 15.124 47.581 15.9863 48.9697 15.9863C50.38 15.9863 51.15 15.1687 51.15 14.0844C51.15 11.4751 44.012 13.0448 44.012 7.91397C44.012 4.81758 46.4701 2.89331 49.3123 2.89331C50.5097 2.89331 53.5016 3.35803 53.5016 5.10502Z" fill="#1C1C1C"/>
<path d="M58.5458 6.21156H56.2158C55.1897 6.21156 54.7623 5.43875 54.7623 4.68488C54.7623 3.91035 55.2961 3.1582 56.2158 3.1582H64.0806C65.0003 3.1582 65.5341 3.91035 65.5341 4.68488C65.5341 5.43703 65.1067 6.21156 64.0806 6.21156H61.7506V17.3148C61.7506 18.4215 61.067 19.0412 60.1474 19.0412C59.2277 19.0412 58.5441 18.4215 58.5441 17.3148V6.21156H58.5458Z" fill="#1C1C1C"/>
<path d="M66.2405 4.88452C66.2405 3.84494 66.8393 3.15991 67.907 3.15991H71.6905C74.832 3.15991 77.162 5.28384 77.162 8.44563C77.162 11.6745 74.7472 13.6883 71.8185 13.6883H69.447V17.3148C69.447 18.4215 68.7634 19.0412 67.8438 19.0412C66.9241 19.0412 66.2405 18.4215 66.2405 17.3148V4.88452ZM69.4453 10.7675H71.6256C72.9711 10.7675 73.8259 9.75027 73.8259 8.42325C73.8259 7.09623 72.9711 6.07902 71.6256 6.07902H69.4453V10.7675Z" fill="#1C1C1C"/>
<path d="M78.1238 4.88452C78.1238 3.82428 78.7009 3.15991 79.7686 3.15991H83.5305C86.8217 3.15991 88.8524 4.68659 88.8524 8.15819C88.8524 10.5919 87.0795 11.9844 84.8992 12.3389L88.5331 16.3647C88.8324 16.6969 88.9605 17.0291 88.9605 17.3372C88.9605 18.1995 88.2969 19.0411 87.3573 19.0411C86.9731 19.0411 86.4592 18.8862 86.1183 18.4663L81.3735 12.5162H81.3302V17.3165C81.3302 18.4233 80.6467 19.0429 79.727 19.0429C78.809 19.0429 78.1238 18.4233 78.1238 17.3165V4.88452ZM81.3302 10.1272H83.5305C84.7063 10.1272 85.5195 9.39743 85.5195 8.15819C85.5195 6.89657 84.708 6.21155 83.5305 6.21155H81.3302V10.1272Z" fill="#1C1C1C"/>
<path d="M90.0078 5.08418C90.0078 3.97747 90.5417 3.15991 91.6742 3.15991H96.9745C98.0006 3.15991 98.4929 3.91206 98.4929 4.68659C98.4929 5.43874 97.9806 6.21327 96.9745 6.21327H93.2126V9.4439H96.7184C97.7661 9.4439 98.2783 10.1961 98.2783 10.9689C98.2783 11.721 97.7445 12.4955 96.7184 12.4955H93.2126V15.857H97.1657C98.1919 15.857 98.6841 16.6091 98.6841 17.3837C98.6841 18.1358 98.1702 18.9103 97.1657 18.9103H91.6526C90.713 18.9103 90.0078 18.2477 90.0078 17.2511V5.08418Z" fill="#1C1C1C"/>
<path d="M108.901 5.10502C108.901 5.96732 108.345 6.74185 107.469 6.74185C106.592 6.74185 105.909 6.0792 104.626 6.0792C103.707 6.0792 102.874 6.58866 102.874 7.51637C102.874 9.7952 110.012 8.33565 110.012 14.0413C110.012 17.2048 107.49 19.1721 104.54 19.1721C102.895 19.1721 99.3462 18.7746 99.3462 16.6937C99.3462 15.8314 99.9017 15.124 100.778 15.124C101.783 15.124 102.98 15.9863 104.369 15.9863C105.779 15.9863 106.549 15.1687 106.549 14.0844C106.549 11.4751 99.4111 13.0448 99.4111 7.91397C99.4111 4.81758 101.869 2.89331 104.711 2.89331C105.909 2.89331 108.901 3.35803 108.901 5.10502Z" fill="#1C1C1C"/>
<path d="M120.38 5.10502C120.38 5.96732 119.824 6.74185 118.948 6.74185C118.071 6.74185 117.388 6.0792 116.105 6.0792C115.186 6.0792 114.353 6.58866 114.353 7.51637C114.353 9.7952 121.492 8.33565 121.492 14.0413C121.492 17.2048 118.969 19.1721 116.021 19.1721C114.376 19.1721 110.828 18.7746 110.828 16.6937C110.828 15.8314 111.384 15.124 112.26 15.124C113.265 15.124 114.462 15.9863 115.851 15.9863C117.261 15.9863 118.031 15.1687 118.031 14.0844C118.031 11.4751 110.893 13.0448 110.893 7.91397C110.893 4.81758 113.351 2.89331 116.194 2.89331C117.386 2.89331 120.38 3.35803 120.38 5.10502Z" fill="#1C1C1C"/>
<path d="M122.26 11.0327C122.26 6.43204 125.252 2.89331 129.613 2.89331C133.909 2.89331 136.966 6.54219 136.966 11.0327C136.966 15.611 133.994 19.1721 129.613 19.1721C125.274 19.1739 122.26 15.6128 122.26 11.0327ZM133.631 11.0327C133.631 8.35631 132.284 5.94495 129.613 5.94495C126.942 5.94495 125.595 8.35631 125.595 11.0327C125.595 13.7315 126.899 16.1205 129.613 16.1205C132.327 16.1205 133.631 13.7315 133.631 11.0327Z" fill="#1C1C1C"/>
<path d="M17.9246 8.40771C18.1957 8.40771 18.4169 8.63663 18.4169 8.91718C18.4169 9.19773 18.1957 9.42665 17.9246 9.42665H12.6925C12.5611 9.42665 12.4381 9.37329 12.3449 9.27691C12.2518 9.18052 12.2003 9.05315 12.2003 8.91718C12.2003 8.63663 12.4214 8.40771 12.6925 8.40771H17.9246Z" fill="#D24C48"/>
<path d="M15.1057 10.5767C15.2371 10.5767 15.3618 10.63 15.4549 10.7264C15.5464 10.8228 15.598 10.9502 15.598 11.0861C15.598 11.3667 15.3784 11.5956 15.1057 11.5956H12.6925C12.4214 11.5956 12.2003 11.3667 12.2003 11.0861C12.2003 10.8056 12.4214 10.5767 12.6925 10.5767H15.1057Z" fill="#52AC62"/>
<path d="M12.2003 11.086C12.2003 11.3666 12.4215 11.5955 12.6926 11.5955H15.1057C15.3768 11.5955 15.598 11.3666 15.598 11.086C15.598 10.95 15.5481 10.8227 15.455 10.7263C15.3618 10.6299 15.2371 10.5766 15.1057 10.5766H12.6926C12.4215 10.5766 12.2003 10.8038 12.2003 11.086ZM12.2003 8.91735C12.2003 9.05332 12.2518 9.18069 12.345 9.27707C12.4381 9.37346 12.5612 9.42681 12.6926 9.42681H17.9246C18.1957 9.42681 18.4169 9.19962 18.4169 8.91735C18.4169 8.6368 18.1957 8.40788 17.9246 8.40788H12.6926C12.4215 8.40788 12.2003 8.6368 12.2003 8.91735ZM5.508 13.0499C5.508 15.685 7.58021 17.8278 10.1247 17.8278C12.6709 17.8278 14.7415 15.685 14.7415 13.0499C14.7415 12.9483 14.7382 12.8468 14.7315 12.7452H12.6926C11.8095 12.7452 11.0893 12 11.0893 11.086C11.0893 10.685 11.2274 10.3046 11.4785 10.0034C11.2257 9.7022 11.0893 9.32182 11.0893 8.91907C11.0893 8.4664 11.2623 8.04299 11.5783 7.7263C11.5883 7.70736 11.5999 7.68843 11.6115 7.67294C12.0207 7.07914 12.2369 6.38206 12.2369 5.65917C12.2369 3.74007 10.7268 2.17724 8.87244 2.17724C7.01809 2.17724 5.508 3.74007 5.508 5.65917V13.0499ZM17.9246 7.25814C18.8077 7.25814 19.5279 8.0034 19.5279 8.91735C19.5279 9.83301 18.8077 10.5766 17.9246 10.5766H16.6324C16.684 10.7401 16.7089 10.9105 16.7089 11.086C16.7089 11.6609 16.4195 12.1945 15.9489 12.4957C15.9655 12.6798 15.9738 12.8657 15.9738 13.0499C15.9738 16.3872 13.3511 19.1015 10.1247 19.1015C6.90001 19.1015 4.27731 16.3855 4.27731 13.0499V7.49222L1.48332 6.11184C1.32533 6.03439 1.23219 5.86743 1.24384 5.68843C1.25548 5.50943 1.36857 5.35624 1.53488 5.30117L4.46691 4.30977C5.04067 2.29945 6.84346 0.901855 8.8741 0.901855C11.4086 0.901855 13.4692 3.03439 13.4692 5.65745C13.4692 6.2065 13.3794 6.74523 13.1998 7.25814H17.9246Z" fill="#1C1C1C"/>
<path d="M8.66971 6.3699C8.19074 6.3699 7.80157 5.96715 7.80157 5.47145C7.80157 4.97575 8.19074 4.573 8.66971 4.573C9.14868 4.573 9.53784 4.97575 9.53784 5.47145C9.53618 5.96715 9.14702 6.3699 8.66971 6.3699Z" fill="#1C1C1C"/>
</svg>
