<svg width="26" height="26" viewBox="0 0 26 26" fill="none" xmlns="http://www.w3.org/2000/svg">
<path d="M18.2065 20.25C17.6041 20.0347 16.9186 19.8616 16.1781 19.7336C16.6526 19.1765 17.1582 18.5588 17.6657 17.8989C20.466 14.2582 21.8858 11.2258 21.8858 8.88606C21.8858 3.98628 17.8996 0 12.9998 0C8.1 0 4.11377 3.98628 4.11377 8.88601C4.11377 11.239 5.53371 14.2755 8.3342 17.9111C8.83942 18.567 9.34256 19.1808 9.81518 19.7346C9.07713 19.8625 8.39382 20.0353 7.79307 20.2499C5.68057 21.0049 5.23715 22.0187 5.23715 22.7363C5.23715 23.4539 5.68057 24.4678 7.79307 25.2227C9.1955 25.724 11.0446 26 12.9998 26C14.9549 26 16.8041 25.724 18.2065 25.2227C20.319 24.4678 20.7624 23.4539 20.7624 22.7363C20.7624 22.0187 20.319 21.0049 18.2065 20.25ZM5.63721 8.88601C5.63721 4.8263 8.94002 1.52344 12.9998 1.52344C17.0595 1.52344 20.3623 4.8263 20.3623 8.88601C20.3623 10.8508 19.0161 13.6413 16.4692 16.9557C15.1063 18.7292 13.7287 20.2177 12.9987 20.9769C12.2712 20.223 10.9014 18.7475 9.54107 16.9815C6.98712 13.6659 5.63721 10.8665 5.63721 8.88601ZM17.6938 23.7882C16.4517 24.2321 14.7846 24.4766 12.9998 24.4766C11.2149 24.4766 9.54787 24.2321 8.30571 23.7882C7.18004 23.3859 6.76059 22.9295 6.76059 22.7363C6.76059 22.5432 7.18009 22.0868 8.30571 21.6846C9.07342 21.4102 10.004 21.2126 11.0239 21.1014C11.8516 22.0048 12.4239 22.5649 12.4681 22.608L13.0008 23.1272L13.5325 22.607C13.5767 22.5637 14.1466 22.0038 14.9714 21.1012C15.993 21.2123 16.9251 21.4098 17.6939 21.6846C18.8195 22.0868 19.239 22.5432 19.239 22.7363C19.239 22.9295 18.8195 23.3859 17.6938 23.7882Z" fill="#5C5D67"/>
<path d="M17.8052 8.88605C17.8052 6.23628 15.6495 4.08057 12.9998 4.08057C10.3501 4.08057 8.19434 6.23628 8.19434 8.88605C8.19434 11.5358 10.3501 13.6915 12.9998 13.6915C15.6495 13.6915 17.8052 11.5358 17.8052 8.88605ZM9.71777 8.88605C9.71777 7.0763 11.1901 5.604 12.9998 5.604C14.8095 5.604 16.2818 7.0763 16.2818 8.88605C16.2818 10.6958 14.8095 12.1681 12.9998 12.1681C11.1901 12.1681 9.71777 10.6958 9.71777 8.88605Z" fill="#6AAE36"/>
</svg>
