<svg width="26" height="26" viewBox="0 0 26 26" fill="none" xmlns="http://www.w3.org/2000/svg">
<path d="M22.1406 3.65624H21.3789V0.761709C21.3789 0.550916 21.2915 0.349518 21.1376 0.205451C20.9836 0.0614359 20.7772 -0.0122477 20.5665 0.00166634L5.33213 1.01729C4.93203 1.04395 4.62109 1.37631 4.62109 1.77733V3.65624H3.85938C3.4387 3.65624 3.09766 3.99729 3.09766 4.41796V7.46483C3.09766 7.88551 3.4387 8.22655 3.85938 8.22655H4.68355L6.14727 25.3033C6.18109 25.6973 6.51077 26 6.90625 26H19.0938C19.4892 26 19.8189 25.6973 19.8527 25.3033L21.3164 8.22655H22.1406C22.5613 8.22655 22.9023 7.88551 22.9023 7.46483V4.41796C22.9023 3.99729 22.5613 3.65624 22.1406 3.65624ZM6.14453 2.48995L19.8555 1.57589V3.65624H6.14453V2.48995ZM18.3945 24.4766H7.60546L7.4749 22.9531H18.5251L18.3945 24.4766ZM18.6557 21.4297H7.34434L6.4738 11.2734H19.5263L18.6557 21.4297ZM19.6568 9.74999H6.34319L6.21258 8.22655H19.7873L19.6568 9.74999ZM21.3789 6.70311H4.62109V5.17968H21.3789V6.70311Z" fill="#5C5D67"/>
<path d="M10.8852 18.6407C11.754 19.3595 12.6167 19.804 12.653 19.8226C12.7619 19.8784 12.8809 19.9062 12.9999 19.9062C13.119 19.9062 13.238 19.8783 13.3469 19.8226C13.3832 19.804 14.2458 19.3595 15.1147 18.6407C16.3791 17.5948 17.0202 16.5114 17.0202 15.4206C17.0202 13.9739 15.8431 12.7969 14.3964 12.7969C13.8987 12.7969 13.4154 12.9416 12.9999 13.2062C12.5845 12.9416 12.1012 12.7969 11.6035 12.7969C10.1567 12.7969 8.97974 13.9739 8.97974 15.4206C8.97974 16.5114 9.6208 17.5948 10.8852 18.6407ZM11.6035 14.3203C11.919 14.3203 12.2113 14.4559 12.4264 14.7021C12.5711 14.8676 12.7802 14.9625 12.9999 14.9625C13.2197 14.9625 13.4288 14.8676 13.5735 14.7021C13.7886 14.4559 14.0809 14.3203 14.3964 14.3203C15.0031 14.3203 15.4967 14.8139 15.4967 15.4206C15.4967 16.5455 13.8996 17.7332 13 18.2718C12.0998 17.7328 10.5032 16.5454 10.5032 15.4206C10.5032 14.8139 10.9968 14.3203 11.6035 14.3203Z" fill="#6AAE36"/>
</svg>
