<svg width="40" height="40" viewBox="0 0 40 40" fill="none" xmlns="http://www.w3.org/2000/svg">
<path d="M34.5943 4.46906H31.1238V2.46242C31.1238 1.10469 30.0191 0 28.6614 0H5.4057C4.04797 0 2.94336 1.10469 2.94336 2.46242V36.6562C2.94336 38.5 4.44477 40 6.29016 40H33.0968C33.1191 40 33.1411 39.999 33.1629 39.9972C33.2113 39.9991 33.26 40 33.3089 40C35.3754 40 37.0566 38.3204 37.0566 36.2559V6.93141C37.0566 5.57367 35.952 4.46906 34.5943 4.46906ZM4.50586 36.6562V2.46242C4.50586 1.96617 4.90953 1.5625 5.4057 1.5625H28.6614C29.1576 1.5625 29.5613 1.96617 29.5613 2.46242V36.2559C29.5613 37.0693 29.8223 37.8229 30.2649 38.4376H6.29016C5.30625 38.4375 4.50586 37.6384 4.50586 36.6562ZM35.4941 36.2559C35.4941 37.4588 34.5138 38.4375 33.3089 38.4375C32.104 38.4375 31.1237 37.4588 31.1237 36.2559V6.03156H34.5942C35.0905 6.03156 35.4941 6.43523 35.4941 6.93141V36.2559Z" fill="#5C5D67"/>
<path d="M7.8785 14.9004C8.30998 14.9004 8.65975 14.5506 8.65975 14.1192V12.3725L10.1136 14.4752C10.3301 14.7875 10.7093 14.9241 11.0573 14.8154C11.4103 14.7051 11.6474 14.3676 11.6473 13.9682L11.6075 9.85326C11.6033 9.42436 11.2544 9.07959 10.8264 9.07959H10.8187C10.3872 9.08381 10.0408 9.43693 10.045 9.86842L10.0622 11.6536L8.521 9.42451C8.32662 9.14334 7.97209 9.02131 7.64568 9.12311C7.31936 9.2249 7.09717 9.52709 7.09717 9.86889V14.1193C7.09725 14.5506 7.44701 14.9004 7.8785 14.9004Z" fill="#5C5D67"/>
<path d="M13.3457 14.9002H15.1258C15.5573 14.9002 15.907 14.5504 15.907 14.1189C15.907 13.6875 15.5573 13.3377 15.1258 13.3377H14.127V12.7904H14.9945C15.426 12.7904 15.7758 12.4406 15.7758 12.0092C15.7758 11.5778 15.426 11.2279 14.9945 11.2279H14.127V10.6807H15.1258C15.5573 10.6807 15.907 10.3308 15.907 9.89941C15.907 9.46801 15.5573 9.11816 15.1258 9.11816H13.3457C12.9142 9.11816 12.5645 9.46801 12.5645 9.89941V14.1189C12.5645 14.5504 12.9142 14.9002 13.3457 14.9002Z" fill="#5C5D67"/>
<path d="M25.3434 14.9002C26.3627 14.9002 27.22 14.241 27.382 13.3328C27.4999 12.6716 27.2045 11.7399 25.9837 11.2903C25.5098 11.1157 25.0653 10.9265 24.8809 10.8465C24.8778 10.839 24.8764 10.8287 24.8786 10.8137C24.887 10.7548 24.9471 10.7045 25.0433 10.6755C25.5192 10.5321 25.9852 10.8985 25.9898 10.9022L26.1014 10.9887C26.4287 11.2427 26.8981 11.1927 27.1645 10.8755C27.4621 10.5209 27.3804 9.9885 26.9943 9.73311C26.167 9.18592 25.4025 8.93569 24.5931 9.17921C23.9108 9.38444 23.4275 9.92577 23.3319 10.5917C23.2414 11.2225 23.5154 11.8294 24.0469 12.1755C24.0813 12.1979 24.1176 12.2176 24.1552 12.2344C24.1802 12.2455 24.7746 12.5098 25.4434 12.7563C25.7102 12.8546 25.8564 12.987 25.8437 13.0583C25.8269 13.1526 25.6578 13.3375 25.3434 13.3375C24.8173 13.3375 24.516 13.0505 24.4362 12.9626C24.1398 12.6358 23.6298 12.6181 23.3114 12.929C23.0039 13.2294 23.0222 13.7427 23.3181 14.0545C23.8286 14.5928 24.5633 14.9002 25.3434 14.9002Z" fill="#5C5D67"/>
<path d="M17.5263 14.2071C17.5337 14.2446 17.5439 14.2813 17.5566 14.3172C17.681 14.6668 18.0126 14.9006 18.3834 14.9006H18.3894C18.7625 14.8981 19.094 14.6591 19.2141 14.306C19.2165 14.2992 19.2186 14.2923 19.2208 14.2854L19.771 12.5098L20.3187 14.2857C20.3219 14.2962 20.3254 14.3066 20.3291 14.3169C20.4533 14.6667 20.7851 14.9006 21.1559 14.9006H21.1617C21.5348 14.8982 21.8664 14.6591 21.9866 14.306C21.9976 14.2735 22.0065 14.2404 22.0133 14.2068L22.8473 10.0214C22.9316 9.59831 22.6569 9.1869 22.2337 9.10253C21.8111 9.01846 21.3991 9.29292 21.3148 9.71612L21.0125 11.2336L20.5181 9.63073C20.3909 9.21846 19.9536 8.98737 19.5413 9.11448C19.2642 9.19995 19.069 9.42549 19.0093 9.6894L18.5304 11.2344L18.2284 9.70932C18.1446 9.28612 17.7334 9.01089 17.3103 9.09471C16.8871 9.17854 16.6119 9.58964 16.6957 10.0128L17.5263 14.2071Z" fill="#5C5D67"/>
<path d="M26.6262 33.3457H7.64062C7.20914 33.3457 6.85938 33.6955 6.85938 34.127C6.85938 34.5584 7.20914 34.9082 7.64062 34.9082H26.6263C27.0577 34.9082 27.4075 34.5584 27.4075 34.127C27.4075 33.6955 27.0577 33.3457 26.6262 33.3457Z" fill="#6AAE36"/>
<path d="M26.6266 17.2222H7.87891C7.44742 17.2222 7.09766 17.572 7.09766 18.0034V30.3675C7.09766 30.7989 7.44742 31.1487 7.87891 31.1487H26.6266C27.058 31.1487 27.4079 30.7989 27.4079 30.3675V18.0034C27.4078 17.572 27.058 17.2222 26.6266 17.2222ZM8.66016 18.7847H25.8454V28.7325L20.4153 21.0011C20.2703 20.7945 20.0344 20.6708 19.782 20.6688H19.776C19.5259 20.6688 19.2908 20.7886 19.1437 20.9913L16.4204 24.7447L14.6135 23.1062C14.4504 22.9583 14.2324 22.886 14.0133 22.9074C13.7941 22.9287 13.5941 23.0415 13.4625 23.2179L8.71336 29.5862H8.66023V18.7847H8.66016ZM10.6624 29.5862L14.2009 24.8415L16.0162 26.4876C16.1805 26.6366 16.4002 26.709 16.6216 26.6858C16.8423 26.6629 17.043 26.5473 17.1734 26.3676L19.7656 22.7947L24.5356 29.5863H10.6624V29.5862Z" fill="#6AAE36"/>
<path d="M33.2534 11.1953C32.822 11.1953 32.4722 11.5452 32.4722 11.9766V30.906C32.4722 31.3374 32.822 31.6873 33.2534 31.6873C33.6848 31.6873 34.0347 31.3374 34.0347 30.906V11.9766C34.0347 11.5451 33.6848 11.1953 33.2534 11.1953Z" fill="#5C5D67"/>
</svg>
