<svg width="24" height="24" viewBox="0 0 24 24" fill="none" xmlns="http://www.w3.org/2000/svg">
<g clip-path="url(#clip0)">
<path d="M5.4966 4.75927C9.03991 1.55411 14.3426 1.50511 17.935 4.43091L15.0876 4.53873C14.72 4.55343 14.4357 4.85729 14.4504 5.22485C14.4652 5.58261 14.7592 5.86196 15.1121 5.86196C15.1219 5.86196 15.1268 5.86196 15.1366 5.86196L19.5081 5.70023C19.8659 5.68553 20.1452 5.39638 20.1452 5.03862V4.98961C20.1452 4.97981 20.1452 4.97491 20.1452 4.96511V4.9602L19.9835 0.637656C19.9688 0.270092 19.6601 -0.014157 19.2974 0.000545557C18.9298 0.0152481 18.6456 0.319101 18.6603 0.686664L18.7632 3.39683C16.9842 1.94128 14.7935 1.09834 12.4509 0.980715C9.5496 0.83369 6.76102 1.82856 4.60954 3.7791C1.64943 6.45986 0.394814 10.5374 1.33578 14.4188C1.40929 14.7227 1.67884 14.9236 1.97779 14.9236C2.0317 14.9236 2.08071 14.9187 2.13462 14.904C2.48748 14.8158 2.70801 14.4581 2.6198 14.1052C1.79646 10.6942 2.89425 7.11168 5.4966 4.75927Z" fill="#333333"/>
<path d="M22.6642 9.58178C22.576 9.22892 22.2182 9.00839 21.8654 9.0966C21.5125 9.18482 21.292 9.54258 21.3802 9.89544C22.2084 13.3064 21.1057 16.889 18.5034 19.2414C16.6754 20.8929 14.3818 21.7065 12.098 21.7065C9.91709 21.7065 7.74111 20.9665 5.98661 19.506L8.86831 19.2463C9.23097 19.212 9.50052 18.8934 9.46621 18.5258C9.43191 18.1583 9.11335 17.8936 8.74579 17.9279L4.38893 18.32C4.02627 18.3543 3.75672 18.6729 3.79103 19.0404L4.1831 23.3973C4.2125 23.7403 4.50165 24.0001 4.83981 24.0001C4.85941 24.0001 4.87902 24.0001 4.89862 23.9952C5.26128 23.9609 5.53083 23.6423 5.49653 23.2748L5.26128 20.6234C7.04029 22.0642 9.22117 22.9023 11.5491 23.0199C11.7353 23.0297 11.9215 23.0346 12.1029 23.0346C14.8032 23.0346 17.3713 22.0446 19.3904 20.2215C22.3505 17.5408 23.6052 13.4682 22.6642 9.58178Z" fill="#333333"/>
</g>
<defs>
<clipPath id="clip0">
<rect width="24" height="24" fill="white"/>
</clipPath>
</defs>
</svg>
