<svg width="27" height="27" viewBox="0 0 27 27" fill="none" xmlns="http://www.w3.org/2000/svg">
<path d="M6.33324 12.1004L8.20747 13.8215C8.31626 13.9214 8.36473 14.0551 8.34052 14.1881L7.89808 16.6184C7.66647 17.8905 8.70249 18.9952 9.96173 18.9952C10.6112 18.9952 10.7615 18.8491 13.2421 17.6205C13.401 17.5418 13.5985 17.5418 13.7574 17.6205L16.0741 18.7679C17.6246 19.5361 19.3996 18.2567 19.1014 16.6183L18.659 14.188C18.6347 14.055 18.6833 13.9214 18.792 13.8215L20.6662 12.1004C21.932 10.9381 21.2547 8.87042 19.5135 8.63206L16.9234 8.27753C16.7503 8.25385 16.6039 8.15756 16.5318 8.01997L15.3734 5.80882C14.598 4.32867 12.4014 4.32873 11.626 5.80882L10.4676 8.01997C10.3955 8.1575 10.2492 8.2538 10.0761 8.27753L7.48591 8.63206C5.74583 8.87032 5.06661 10.9374 6.33324 12.1004ZM7.70048 10.1995L10.2907 9.84495C10.9699 9.75193 11.5599 9.34419 11.869 8.75419L13.0273 6.54304C13.2111 6.19241 13.7884 6.19231 13.9721 6.54304L15.1305 8.75419C15.4396 9.34419 16.0296 9.75193 16.7088 9.84495L19.299 10.1995C19.6983 10.2542 19.8856 10.6695 19.5963 10.9352L17.722 12.6564C17.2124 13.1243 16.9809 13.8028 17.1025 14.4714L17.545 16.9017C17.6099 17.2577 17.1596 17.5401 16.7762 17.3504L14.4595 16.2029C13.8585 15.9053 13.1409 15.9053 12.54 16.2029L10.2232 17.3503C9.84909 17.5358 9.38814 17.266 9.45448 16.9017L9.89692 14.4714C10.0187 13.8028 9.78713 13.1243 9.27751 12.6563L7.40322 10.9351C7.11392 10.6695 7.30123 10.2542 7.70048 10.1995Z" fill="#6AAE36"/>
<path d="M23.7142 0H3.2854C2.55846 0 1.96704 0.591416 1.96704 1.31831V25.1525C1.96704 25.7768 2.27875 26.3538 2.80093 26.6961C3.32421 27.0391 3.97775 27.0934 4.54902 26.8449L13.3947 22.9966C13.4616 22.9675 13.5382 22.9675 13.605 22.9966L22.4506 26.8449C23.6697 27.375 25.0326 26.4807 25.0326 25.1525V1.31831C25.0325 0.591416 24.4411 0 23.7142 0V0ZM23.4506 25.1525C23.4506 25.3429 23.2563 25.4703 23.0817 25.3942L14.2361 21.5459C13.7681 21.3424 13.2314 21.3425 12.7635 21.5459L3.91784 25.3942C3.74329 25.4702 3.54902 25.343 3.54902 25.1525V1.58198H23.4505V25.1525H23.4506Z" fill="#6AAE36"/>
</svg>
