<svg width="26" height="26" viewBox="0 0 26 26" fill="none" xmlns="http://www.w3.org/2000/svg">
<path d="M13 0C5.83193 0 0 5.83193 0 13C0 20.168 5.83193 25.9999 13 25.9999C20.168 25.9999 25.9999 20.168 25.9999 13C25.9999 5.83193 20.1681 0 13 0ZM13 24.8695C6.45476 24.8695 1.13042 19.5452 1.13042 13C1.13042 6.45476 6.45476 1.13042 13 1.13042C19.5452 1.13042 24.8695 6.45476 24.8695 13C24.8695 19.5452 19.5452 24.8695 13 24.8695Z" fill="#5C5D67"/>
<path d="M13.0002 12.4348C8.94869 12.4348 5.65234 15.7311 5.65234 19.7826C5.65234 20.0946 5.90558 20.3479 6.21758 20.3479C6.52958 20.3479 6.78281 20.0946 6.78281 19.7826C6.78281 16.354 9.57158 13.5652 13.0002 13.5652C16.4288 13.5652 19.2176 16.354 19.2176 19.7826C19.2176 20.0946 19.4708 20.3478 19.7828 20.3478C20.0948 20.3478 20.348 20.0946 20.348 19.7826C20.348 15.7311 17.0517 12.4348 13.0002 12.4348Z" fill="#6AAE36"/>
<path d="M13 3.3913C10.8183 3.3913 9.04346 5.16606 9.04346 7.34783C9.04346 9.5296 10.8182 11.3044 13 11.3044C15.1818 11.3044 16.9565 9.52955 16.9565 7.34783C16.9565 5.16611 15.1818 3.3913 13 3.3913ZM13 10.1739C11.4423 10.1739 10.1739 8.90555 10.1739 7.34783C10.1739 5.79011 11.4423 4.52177 13 4.52177C14.5577 4.52177 15.826 5.79011 15.826 7.34783C15.826 8.90555 14.5578 10.1739 13 10.1739Z" fill="#6AAE36"/>
</svg>
